# xmcd
#
# Track frame offsets:
#	150
#	15305
#	32873
#	44212
#	58026
#	72121
#	83118
#	95319
#	109133
#	118768
#	136094
#	146492
#	161575
#	176912
#	189131
#	205770
#	223188
#	234655
#	251608
#	267986
#	282395
#	297457
#
# Disc length: 4112 seconds
#
# Revision: 2977568183
# Processed by: cddbd v1.5.2PL0 Copyright (c) Steve Scherf et al.
# Submitted via: EZCDAudioConverter 9.0.2.1
#
DISCID=4e100e16
DTITLE=Merle Haggard - Kern River - Chill Factor
DYEAR=2009
DGENRE=Country
TTITLE0=Kern River
TTITLE1=Old Flames Can't Hold A Candle To You
TTITLE2=There I've Said It Again
TTITLE3=You Don't Love Me Anymore
TTITLE4=Natural High
TTITLE5=Big Butter And Egg Man
TTITLE6=Ridin' High
TTITLE7=There's Somebody Else On Your Mind
TTITLE8=I Wonder Where I'll Find You At Tonight
TTITLE9=There Won't Be Another Now
TTITLE10=The Old Watermill
TTITLE11=Chill Factor
TTITLE12=Twinkle, Twinkle Lucky Star
TTITLE13=Man From Another Time
TTITLE14=We Never Touch At All
TTITLE15=You Babe
TTITLE16=Thanking The Good Lord
TTITLE17=After Dark
TTITLE18=1929
TTITLE19=Thirty Again
TTITLE20=I Don't Have Any Love Around
TTITLE21=More Than This Old Heart Can Take
EXTD=
EXTT0=
EXTT1=
EXTT2=
EXTT3=
EXTT4=
EXTT5=
EXTT6=
EXTT7=
EXTT8=
EXTT9=
EXTT10=
EXTT11=
EXTT12=
EXTT13=
EXTT14=
EXTT15=
EXTT16=
EXTT17=
EXTT18=
EXTT19=
EXTT20=
EXTT21=
PLAYORDER=
